<svg width="137" height="54" viewBox="0 0 137 54" fill="none" xmlns="http://www.w3.org/2000/svg">
<path d="M20.72 8.8L28.76 35H25.08L23.36 28.92H13.72L12 35H8.52L16.52 8.8H20.72ZM18.56 11.92L14.56 25.88H22.52L18.56 11.92ZM38.6891 7.68V35H35.2891V7.68H38.6891Z" fill="#0811EA"/>
<path d="M20.72 8.8L21.676 8.50663L21.4592 7.8H20.72V8.8ZM28.76 35V36H30.1129L29.716 34.7066L28.76 35ZM25.08 35L24.1178 35.2722L24.3237 36H25.08V35ZM23.36 28.92L24.3222 28.6478L24.1163 27.92H23.36V28.92ZM13.72 28.92V27.92H12.9637L12.7578 28.6478L13.72 28.92ZM12 35V36H12.7563L12.9622 35.2722L12 35ZM8.52 35L7.56359 34.708L7.16908 36H8.52V35ZM16.52 8.8V7.8H15.7798L15.5636 8.50797L16.52 8.8ZM18.56 11.92L19.522 11.6471L18.5648 8.27269L17.5987 11.6446L18.56 11.92ZM14.56 25.88L13.5987 25.6046L13.2332 26.88H14.56V25.88ZM22.52 25.88V26.88H23.8431L23.482 25.6071L22.52 25.88ZM19.764 9.09337L27.804 35.2934L29.716 34.7066L21.676 8.50663L19.764 9.09337ZM28.76 34H25.08V36H28.76V34ZM26.0422 34.7278L24.3222 28.6478L22.3978 29.1922L24.1178 35.2722L26.0422 34.7278ZM23.36 27.92H13.72V29.92H23.36V27.92ZM12.7578 28.6478L11.0378 34.7278L12.9622 35.2722L14.6822 29.1922L12.7578 28.6478ZM12 34H8.52V36H12V34ZM9.47641 35.292L17.4764 9.09203L15.5636 8.50797L7.56359 34.708L9.47641 35.292ZM16.52 9.8H20.72V7.8H16.52V9.8ZM17.5987 11.6446L13.5987 25.6046L15.5213 26.1554L19.5213 12.1954L17.5987 11.6446ZM14.56 26.88H22.52V24.88H14.56V26.88ZM23.482 25.6071L19.522 11.6471L17.598 12.1929L21.558 26.1529L23.482 25.6071ZM38.6891 7.68H39.6891V6.68H38.6891V7.68ZM38.6891 35V36H39.6891V35H38.6891ZM35.2891 35H34.2891V36H35.2891V35ZM35.2891 7.68V6.68H34.2891V7.68H35.2891ZM37.6891 7.68V35H39.6891V7.68H37.6891ZM38.6891 34H35.2891V36H38.6891V34ZM36.2891 35V7.68H34.2891V35H36.2891ZM35.2891 8.68H38.6891V6.68H35.2891V8.68Z" fill="#0811EA"/>
<path d="M50 1H1V44H50V1Z" stroke="#0811EA" stroke-width="2"/>
<path d="M70.2 15C71.3733 15 72.44 15.1733 73.4 15.52L79.64 15.44V18.44L76.36 18.36C76.8133 19.32 77.04 20.32 77.04 21.36V22.24C77.04 24.1867 76.44 25.76 75.24 26.96C74.04 28.1333 72.36 28.72 70.2 28.72C68.8133 28.72 67.68 28.5867 66.8 28.32C66.2133 28.8 65.92 29.3467 65.92 29.96V30.2C65.92 30.6267 66.0533 30.9467 66.32 31.16C66.5867 31.3467 67.1067 31.4667 67.88 31.52L73.84 31.96C75.0667 32.0667 76.0533 32.5333 76.8 33.36C77.5733 34.16 77.96 35.1733 77.96 36.4V37.88C77.96 39.0267 77.7333 39.96 77.28 40.68C76.8267 41.4 75.9867 41.9467 74.76 42.32C73.56 42.6933 71.8267 42.88 69.56 42.88C68.7067 42.88 67.6933 42.7867 66.52 42.6C65.3733 42.4133 64.28 42.1733 63.24 41.88L63.36 38.72C65.84 39.5467 67.9467 39.96 69.68 39.96C71.12 39.96 72.1867 39.8667 72.88 39.68C73.6 39.52 74.0667 39.2667 74.28 38.92C74.52 38.5733 74.64 38.0533 74.64 37.36V37.04C74.64 36.4267 74.4667 35.9467 74.12 35.6C73.8 35.2533 73.3333 35.0667 72.72 35.04L66.72 34.64C65.44 34.56 64.4667 34.2 63.8 33.56C63.1333 32.92 62.8 32.0533 62.8 30.96V30.16C62.8 29.5733 62.9467 29 63.24 28.44C63.56 27.88 64.0133 27.3867 64.6 26.96C64.1467 26.4533 63.8133 25.8133 63.6 25.04C63.4133 24.24 63.32 23.2667 63.32 22.12V21.24C63.32 19.3467 63.9067 17.84 65.08 16.72C66.2533 15.5733 67.96 15 70.2 15ZM70.2 17.84C69.08 17.84 68.2133 18.1333 67.6 18.72C67.0133 19.28 66.72 20.0933 66.72 21.16V22.48C66.72 23.4667 66.8 24.2 66.96 24.68C67.1467 25.1333 67.4667 25.4533 67.92 25.64C68.3733 25.8 69.0533 25.88 69.96 25.88C71.1867 25.88 72.1067 25.5867 72.72 25C73.3333 24.4133 73.64 23.5733 73.64 22.48V21.28C73.64 20.16 73.48 19.1867 73.16 18.36C72.84 18.2267 72.4 18.1067 71.84 18C71.3067 17.8933 70.76 17.84 70.2 17.84ZM89.6681 15C92.0415 15 93.8015 15.64 94.9481 16.92C96.1215 18.1733 96.7081 19.96 96.7081 22.28V28.2C96.7081 30.52 96.1215 32.32 94.9481 33.6C93.8015 34.8533 92.0415 35.48 89.6681 35.48C87.2948 35.48 85.5215 34.8533 84.3481 33.6C83.2015 32.32 82.6281 30.52 82.6281 28.2V22.28C82.6281 19.96 83.2015 18.1733 84.3481 16.92C85.5215 15.64 87.2948 15 89.6681 15ZM89.6681 17.84C88.5215 17.84 87.6281 18.2 86.9881 18.92C86.3481 19.64 86.0281 20.6667 86.0281 22V28.48C86.0281 29.8133 86.3481 30.84 86.9881 31.56C87.6281 32.28 88.5215 32.64 89.6681 32.64C90.8148 32.64 91.7081 32.28 92.3481 31.56C92.9881 30.84 93.3081 29.8133 93.3081 28.48V21.96C93.3081 20.6267 92.9881 19.6133 92.3481 18.92C91.7081 18.2 90.8148 17.84 89.6681 17.84ZM113.935 15.48V18L104.895 32.08H113.935V35H100.895V32.48L109.975 18.4H101.095V15.48H113.935Z" fill="black"/>
</svg>
